<?xml version="1.0" encoding="UTF-8" standalone="no"?>
<!-- Created with Inkscape (http://www.inkscape.org/) -->

<svg
   version="1.1"
   id="svg2"
   width="1500"
   height="720"
   viewBox="0 0 1500 720"
   sodipodi:docname="ftyu24.eps"
   xmlns:inkscape="http://www.inkscape.org/namespaces/inkscape"
   xmlns:sodipodi="http://sodipodi.sourceforge.net/DTD/sodipodi-0.dtd"
   xmlns="http://www.w3.org/2000/svg"
   xmlns:svg="http://www.w3.org/2000/svg">
  <defs
     id="defs6" />
  <sodipodi:namedview
     id="namedview4"
     pagecolor="#ffffff"
     bordercolor="#000000"
     borderopacity="0.25"
     inkscape:showpageshadow="2"
     inkscape:pageopacity="0.0"
     inkscape:pagecheckerboard="0"
     inkscape:deskcolor="#d1d1d1" />
  <g
     id="g8"
     inkscape:groupmode="layer"
     inkscape:label="ink_ext_XXXXXX"
     transform="matrix(1.3333333,0,0,-1.3333333,0,3888)">
    <g
       id="g10"
       transform="scale(0.1)">
      <path
         d="M 0,0 H 49802.5 V 29160 H 0 Z"
         style="fill:#000000;fill-opacity:1;fill-rule:evenodd;stroke:none"
         id="path12" />
      <path
         d="M 49802.5,6867.8 V 11525 c 129.5,166.2 197.5,259.6 197.5,259.6 V 7007.2 c 0,0 -68.4,-50.7 -197.5,-139.4"
         style="fill:#ffffff;fill-opacity:1;fill-rule:nonzero;stroke:none"
         id="path14" />
      <path
         d="m 0,0 v 0 27257.3 c 0,0 2380.82,-19120.9 7656.81,-19119.9 1076.29,0.2 2273.46,796.1 3594.99,2712.5 3179.3,4610.1 5585.4,6533.3 7917.1,6533.3 1037.3,0 2060.4,-381.2 3129.5,-1075.8 C 20745.5,14979.6 18849.9,12734.3 16351.9,9457.3 13390,5571.8 10654.9,4247 8304.24,4247 3274.11,4247 0,10307.3 0,10307.3 V 0 m 40932.7,3792.6 c -796.2,0 -1602.3,90.8 -2402.1,303.4 5510.7,415.3 10262.5,6133.8 11271.9,7429 V 6867.8 C 48904.4,6250.4 45069.1,3793.1 40932.7,3792.6"
         style="fill:#757575;fill-opacity:1;fill-rule:nonzero;stroke:none"
         id="path16" />
      <path
         d="m 37902.1,4072.2 c -2260.2,0 -4626.6,935.6 -6900.2,3459.3 -3617.5,4015.4 -6280.1,7201.4 -8703.5,8775.9 254.7,217.9 500.2,411 737.7,580 862.1,613.5 1617.6,908.1 2321.6,908.1 2320.4,0 4080.2,-3201.3 7244.2,-8738.3 1463.3,-2560.8 3247.7,-3994.4 5109.5,-4698.4 271.6,-102.7 545,-189.9 819.2,-262.8 -208.4,-15.7 -418.1,-23.8 -628.5,-23.8"
         style="fill:#363636;fill-opacity:1;fill-rule:nonzero;stroke:none"
         id="path18" />
      <path
         d="m 50000,0 v 0 c 0,0 -67.8,97.8008 -197.5,259.199 V 6867.8 c 129.1,88.7 197.5,139.4 197.5,139.4 V 0"
         style="fill:#ffffff;fill-opacity:1;fill-rule:nonzero;stroke:none"
         id="path20" />
      <path
         d="M 38446.5,0 H 29651.8 C 28126.1,986.398 26333.6,2422.1 24101.8,4357.3 22023.8,6159 20294.2,6843.8 18866.7,6843.8 14352,6843.8 12851.8,0 12851.8,0 H 0 v 10307.3 c 0,0 3274.11,-6060.3 8304.24,-6060.3 2350.66,0 5085.76,1324.8 8047.66,5210.3 2498,3277 4393.6,5522.3 5946.5,6850.1 2423.4,-1574.5 5086,-4760.5 8703.5,-8775.9 2273.6,-2523.7 4640,-3459.3 6900.2,-3459.3 210.4,0 420.1,8.1 628.5,23.8 799.8,-212.6 1605.9,-303.4 2402.1,-303.4 4136.4,0.5 7971.7,2457.8 8869.8,3075.2 V 259.199 C 49192.8,1017.9 47214.2,3182 44486.6,3182 43230.4,3182 41815.8,2723.5 40301.9,1457.3 39639.2,903 39026.6,415.602 38446.5,0"
         style="fill:#929292;fill-opacity:1;fill-rule:nonzero;stroke:none"
         id="path22" />
      <path
         d="M 50000,0 H 38446.5 v 0 h 11356 V 259.199 C 49932.2,97.8008 50000,0 50000,0"
         style="fill:#ffffff;fill-opacity:1;fill-rule:nonzero;stroke:none"
         id="path24" />
      <path
         d="m 49802.5,0 h -11356 c 580.1,415.602 1192.7,903 1855.4,1457.3 1513.9,1266.2 2928.5,1724.7 4184.7,1724.7 2727.6,0 4706.2,-2164.1 5315.9,-2922.801 V 0 M 29651.8,0 h -16800 c 0,0 1500.2,6843.8 6014.9,6843.8 1427.5,0 3157.1,-684.8 5235.1,-2486.5 C 26333.6,2422.1 28126.1,986.398 29651.8,0"
         style="fill:#dfdfdf;fill-opacity:1;fill-rule:nonzero;stroke:none"
         id="path26" />
    </g>
  </g>
</svg>
